<svg xmlns="http://www.w3.org/2000/svg" xmlns:xlink="http://www.w3.org/1999/xlink" viewBox="0 0 150 165"><defs><linearGradient id="effaf203-d68a-4331-8667-9ffc38ac1666" x1="226.25" y1="119.51" x2="105.58" y2="222.48" gradientTransform="translate(-112.4 255.27) rotate(-90)" gradientUnits="userSpaceOnUse"><stop offset="0" stop-color="#00f152"/><stop offset="1" stop-color="#0076e9"/></linearGradient><linearGradient id="f12b9e76-ddea-4531-b5a0-47066b37dd85" x1="207.17" y1="208.86" x2="135.56" y2="251.85" gradientTransform="translate(-112.4 255.27) rotate(-90)" gradientUnits="userSpaceOnUse"><stop offset="0" stop-color="#9dd3b8"/><stop offset="1" stop-color="#fff"/></linearGradient><linearGradient id="bbc92b3b-7c2c-4d29-aaca-eee326925a45" x1="170.51" y1="179.62" x2="213.51" y2="205.28" xlink:href="#f12b9e76-ddea-4531-b5a0-47066b37dd85"/><linearGradient id="b9796339-3f22-42a7-8e35-7682659ee1c1" x1="235.11" y1="189.17" x2="143.6" y2="135.83" xlink:href="#f12b9e76-ddea-4531-b5a0-47066b37dd85"/><linearGradient id="fa520adb-d213-460e-9769-5ddc7ba606e5" x1="159.94" y1="199.89" x2="115.51" y2="174" gradientTransform="translate(-112.4 255.27) rotate(-90)" gradientUnits="userSpaceOnUse"><stop offset="0" stop-color="#98bdcf"/><stop offset="1" stop-color="#fff"/></linearGradient></defs><g style="isolation:isolate"><g id="af175b6e-06d4-4d4e-a67c-60fc15dfda3e" data-name="Слой 1"><polygon points="30.29 108.69 116.47 108.69 92.39 66.97 77.53 92.69 57.37 92.69 92.39 32.05 147.76 127.95 0 127.95 73.88 0 83.47 16.61 30.29 108.69" style="fill:url(#effaf203-d68a-4331-8667-9ffc38ac1666)"/><polygon points="147.76 127.95 133.03 118.25 93.35 49.43 92.39 32.05 147.76 127.95" style="mix-blend-mode:multiply;fill:url(#f12b9e76-ddea-4531-b5a0-47066b37dd85)"/><polygon points="57.37 92.69 72.27 86.86 93.35 49.43 92.39 32.05 57.37 92.69" style="mix-blend-mode:multiply;fill:url(#bbc92b3b-7c2c-4d29-aaca-eee326925a45)"/><polygon points="30.29 108.69 15.25 118.25 73.05 17.78 83.47 16.61 30.29 108.69" style="mix-blend-mode:multiply;fill:url(#b9796339-3f22-42a7-8e35-7682659ee1c1)"/><polygon points="30.29 108.69 15.25 118.25 133.03 118.25 116.47 108.69 30.29 108.69" style="mix-blend-mode:multiply;fill:url(#fa520adb-d213-460e-9769-5ddc7ba606e5)"/><text transform="translate(0.64 156.11)" style="font-size:30.51006317138672px;fill:#1da2fc;font-family:CourierNewPS-BoldMT, Courier New;font-weight:700">PERFECTO</text></g></g></svg>